<?xml version="1.0" encoding="utf-8"?>
<!-- Generator: Adobe Illustrator 19.2.1, SVG Export Plug-In . SVG Version: 6.00 Build 0)  -->
<svg version="1.1" id="Layer_1" xmlns="http://www.w3.org/2000/svg" xmlns:xlink="http://www.w3.org/1999/xlink" x="0px" y="0px"
	 viewBox="0 0 488.3 488.3" style="enable-background:new 0 0 488.3 488.3;" xml:space="preserve">
<style type="text/css">
	.st0{fill:#2C2F33;}
	.st1{display:none;fill:#2C2F33;}
	.st2{fill:#3C92CA;}
</style>
<g>
	<g>
		<path class="st0" d="M47.1,71.7v248L1,412.3c-1.5,3.1-1.4,6.7,0.4,9.6s5,4.7,8.4,4.7h468.6l0,0c5.5,0,9.9-4.4,9.9-9.9
			c0-1.9-0.5-3.7-1.5-5.2l-45.3-91.8v-248c0-5.5-4.4-9.9-9.9-9.9H57C51.5,61.8,47.1,66.2,47.1,71.7z M185.3,403.1l5.2-10.4h107.4
			l5.1,10.4H185.3z M66.9,81.6h355v230.5h-355L66.9,81.6L66.9,81.6z M425.6,331.9l36.9,74.9H327l-14-28.4c-1.7-3.4-5.1-5.5-8.9-5.5
			H184.4c-3.8,0-7.2,2.1-8.9,5.5l-14.1,28.4H25.9l37.3-74.9H425.6z"/>
	</g>
</g>
<g>
	<g>
		<path class="st1" d="M91.5,81.6h296.8v215.4c0,2.7-2.2,4.9-4.9,4.9H96.3c-2.7,0-4.9-2.2-4.9-4.9V81.6z"/>
		<path class="st1" d="M183.6,418.2c-2.9,2.9-2.9,7.6,0,10.5c1.4,1.4,3.4,2.2,5.2,2.2s3.8-0.7,5.2-2.2l41.9-41.9v36.7
			c0,4.1,3.3,7.4,7.4,7.4c4.1,0,7.4-3.3,7.4-7.4v-36.7l41.7,41.7c1.4,1.4,3.4,2.2,5.2,2.2c1.9,0,3.8-0.7,5.2-2.2
			c2.9-2.9,2.9-7.6,0-10.5l-52.2-52.2v-19.3h25.9c4.1,0,7.4-3.3,7.4-7.4s-3.3-7.4-7.4-7.4h-67.6c-4.1,0-7.4,3.3-7.4,7.4
			s3.3,7.4,7.4,7.4H236v19.3L183.6,418.2z"/>
		<path class="st1" d="M360.5,195.3l-12.2,12.3c-2.9,2.9-2.8,7.6,0,10.5c1.4,1.4,3.4,2.2,5.2,2.2s3.8-0.7,5.2-2.2l17.5-17.6
			c1.4-1.4,2.2-3.3,2.2-5.2s-0.8-3.8-2.2-5.2l-17.6-17.5c-2.9-2.9-7.6-2.8-10.5,0c-2.9,2.9-2.8,7.6,0,10.5L360.5,195.3z"/>
		<path class="st1" d="M112.8,182.1l-8,7.9"/>
		<path class="st2" d="M153.3,271.1h171.7c4.1,0,7.4-3.3,7.4-7.4V119.8c0-4.1-3.3-7.4-7.4-7.4H153.3c-4.1,0-7.4,3.3-7.4,7.4v143.9
			C145.9,267.8,149.2,271.1,153.3,271.1z M160.8,127.2h156.9v72.1l-35.8-35.8c-2.9-2.9-7.6-2.9-10.5,0l-55,55l-17-16.9
			c-1.4-1.4-3.3-2.2-5.2-2.2s-3.8,0.7-5.2,2.2l-28.1,28.1V127.2z M160.8,250.7l33.4-33.4l17,17c1.4,1.4,3.3,2.2,5.2,2.2
			s3.8-0.7,5.2-2.2l55-55l41,41v35.9H160.8V250.7z"/>
		<path class="st2" d="M227.3,165.3c0-12.6-10.3-22.9-22.9-22.9c-12.6,0-22.9,10.3-22.9,22.9c0,12.6,10.3,22.9,22.9,22.9
			C217,188.1,227.3,177.9,227.3,165.3z M196.4,165.3c0-4.4,3.6-8,8-8c4.4,0,8,3.6,8,8c0,4.4-3.6,8-8,8
			C200,173.3,196.4,169.7,196.4,165.3z"/>
	</g>
</g>
</svg>
